<svg width="790" height="250" viewBox="0 0 790 250" fill="none" xmlns="http://www.w3.org/2000/svg">
<path d="M289 201.172L290 202.672" stroke="#171F3F"/>
<path d="M325.504 0.671753C241.005 86.6718 200.005 108.172 225.504 148.172L241.005 130.672C233.005 112.672 280.505 84.6718 325.504 32.1718C330.205 38.3168 330.848 43.5555 329.505 55.1718L347.505 26.6718C339.537 14.2693 334.848 8.11026 325.504 0.671753Z" fill="url(#paint0_linear_25_37)"/>
<path d="M347.505 26.6718L329.505 55.1718C328.569 63.2589 313.164 77.1668 294.538 93.9823C252.131 132.268 193.029 185.625 250.005 219.672L248.505 215.672C231.643 191.686 262.496 162.172 295.094 130.989C331.127 96.5203 369.293 60.011 347.505 26.6718Z" fill="url(#paint1_linear_25_37)"/>
<path d="M261.005 212.172C235.439 157.672 392.005 99.6718 361.005 32.1718L364.005 33.6718C418.005 97.1718 340.505 118.672 264.005 209.672L261.005 212.172Z" fill="url(#paint2_linear_25_37)"/>
<path d="M325.005 219.672C361.331 230.668 363.005 208.172 359.005 130.672L337.005 152.172C337.591 169.464 338.521 187.443 336.169 200.672C334.508 210.011 331.212 216.982 325.005 219.672Z" fill="url(#paint3_linear_25_37)"/>
<path d="M297.505 194.172L325.005 219.672C331.212 216.982 334.508 210.011 336.169 200.672L312.505 177.672L297.005 193.672L297.505 194.172Z" fill="url(#paint4_linear_25_37)"/>
<path d="M329.505 55.1718C330.848 43.5555 330.205 38.3168 325.504 32.1718C280.505 84.6718 233.005 112.672 241.005 130.672L225.504 148.172C200.005 108.172 241.005 86.6718 325.504 0.671753C334.848 8.11026 339.537 14.2693 347.505 26.6718M329.505 55.1718L347.505 26.6718M329.505 55.1718C328.569 63.2589 313.164 77.1668 294.538 93.9823C252.131 132.268 193.029 185.625 250.005 219.672L248.505 215.672C231.643 191.686 262.496 162.172 295.094 130.989C331.127 96.5203 369.293 60.011 347.505 26.6718M325.005 219.672L297.505 194.172L297.005 193.672L312.505 177.672L336.169 200.672M325.005 219.672C361.331 230.668 363.005 208.172 359.005 130.672L337.005 152.172C337.591 169.464 338.521 187.443 336.169 200.672M325.005 219.672C331.212 216.982 334.508 210.011 336.169 200.672M261.005 212.172C235.439 157.672 392.005 99.6718 361.005 32.1718L364.005 33.6718C418.005 97.1718 340.505 118.672 264.005 209.672L261.005 212.172Z" stroke="#171F3F"/>
<defs>
<linearGradient id="paint0_linear_25_37" x1="300.005" y1="0.671753" x2="300.005" y2="222.291" gradientUnits="userSpaceOnUse">
<stop offset="0.290856" stop-color="#2F5A65"/>
<stop offset="0.669902" stop-color="#9EBAC0"/>
</linearGradient>
<linearGradient id="paint1_linear_25_37" x1="300.005" y1="0.671753" x2="300.005" y2="222.291" gradientUnits="userSpaceOnUse">
<stop offset="0.541978" stop-color="#213F51"/>
<stop offset="0.72806" stop-color="#1D353A"/>
</linearGradient>
<linearGradient id="paint2_linear_25_37" x1="300.005" y1="0.671753" x2="300.005" y2="222.291" gradientUnits="userSpaceOnUse">
<stop offset="0.331731" stop-color="white"/>
<stop offset="0.706731" stop-color="#A2A5A6"/>
</linearGradient>
<linearGradient id="paint3_linear_25_37" x1="300.005" y1="0.671753" x2="300.005" y2="222.291" gradientUnits="userSpaceOnUse">
<stop offset="0.870192" stop-color="#213F51"/>
<stop offset="1" stop-color="#0B2025"/>
</linearGradient>
<linearGradient id="paint4_linear_25_37" x1="300.005" y1="0.671753" x2="300.005" y2="222.291" gradientUnits="userSpaceOnUse">
<stop offset="0.269231" stop-color="#010809"/>
<stop offset="0.5625" stop-color="#213F51"/>
</linearGradient>
</defs>
</svg>
