<svg width="957" height="223" viewBox="0 0 957 223" fill="none" xmlns="http://www.w3.org/2000/svg">
<path d="M71.5 201.172L72.5 202.672" stroke="#171F3F"/>
<path d="M108.004 0.671753C23.5049 86.6718 -17.4953 108.172 8.00411 148.172L23.5047 130.672C15.5047 112.672 63.0047 84.6718 108.004 32.1718C112.705 38.3168 113.348 43.5555 112.005 55.1718L130.005 26.6718C122.037 14.2693 117.348 8.11026 108.004 0.671753Z" fill="url(#paint0_linear_28_38)"/>
<path d="M130.005 26.6718L112.005 55.1718C111.069 63.2589 95.6642 77.1668 77.0384 93.9823C34.6311 132.268 -24.471 185.625 32.5046 219.672L31.0046 215.672C14.1431 191.686 44.9957 162.172 77.5938 130.989C113.627 96.5203 151.793 60.011 130.005 26.6718Z" fill="url(#paint1_linear_28_38)"/>
<path d="M43.5046 212.172C17.9386 157.672 174.505 99.6718 143.505 32.1718L146.505 33.6718C200.505 97.1718 123.005 118.672 46.5046 209.672L43.5046 212.172Z" fill="url(#paint2_linear_28_38)"/>
<path d="M107.505 219.672C143.831 230.668 145.505 208.172 141.505 130.672L119.505 152.172C120.091 169.464 121.021 187.443 118.669 200.672C117.008 210.011 113.712 216.982 107.505 219.672Z" fill="url(#paint3_linear_28_38)"/>
<path d="M80.0046 194.172L107.505 219.672C113.712 216.982 117.008 210.011 118.669 200.672L95.0046 177.672L79.5046 193.672L80.0046 194.172Z" fill="url(#paint4_linear_28_38)"/>
<path d="M112.005 55.1718C113.348 43.5555 112.705 38.3168 108.004 32.1718C63.0047 84.6718 15.5047 112.672 23.5047 130.672L8.00411 148.172C-17.4953 108.172 23.5049 86.6718 108.004 0.671753C117.348 8.11026 122.037 14.2693 130.005 26.6718M112.005 55.1718L130.005 26.6718M112.005 55.1718C111.069 63.2589 95.6642 77.1668 77.0384 93.9823C34.6311 132.268 -24.471 185.625 32.5046 219.672L31.0046 215.672C14.1431 191.686 44.9957 162.172 77.5938 130.989C113.627 96.5203 151.793 60.011 130.005 26.6718M107.505 219.672L80.0046 194.172L79.5046 193.672L95.0046 177.672L118.669 200.672M107.505 219.672C143.831 230.668 145.505 208.172 141.505 130.672L119.505 152.172C120.091 169.464 121.021 187.443 118.669 200.672M107.505 219.672C113.712 216.982 117.008 210.011 118.669 200.672M43.5046 212.172C17.9386 157.672 174.505 99.6718 143.505 32.1718L146.505 33.6718C200.505 97.1718 123.005 118.672 46.5046 209.672L43.5046 212.172Z" stroke="#171F3F"/>
<path d="M217.94 123.932C212.78 123.932 207.8 123.302 203 122.042C198.26 120.722 194.39 119.042 191.39 117.002L197.24 103.862C200.06 105.662 203.3 107.162 206.96 108.362C210.68 109.502 214.37 110.072 218.03 110.072C220.49 110.072 222.47 109.862 223.97 109.442C225.47 108.962 226.55 108.362 227.21 107.642C227.93 106.862 228.29 105.962 228.29 104.942C228.29 103.502 227.63 102.362 226.31 101.522C224.99 100.682 223.28 99.9918 221.18 99.4518C219.08 98.9118 216.74 98.3718 214.16 97.8318C211.64 97.2918 209.09 96.6018 206.51 95.7618C203.99 94.9218 201.68 93.8418 199.58 92.5218C197.48 91.1418 195.77 89.3718 194.45 87.2118C193.13 84.9918 192.47 82.2018 192.47 78.8418C192.47 75.0618 193.49 71.6418 195.53 68.5818C197.63 65.5218 200.75 63.0618 204.89 61.2018C209.03 59.3417 214.19 58.4117 220.37 58.4117C224.51 58.4117 228.56 58.8917 232.52 59.8518C236.54 60.7518 240.11 62.1017 243.23 63.9017L237.74 77.1317C234.74 75.5117 231.77 74.3117 228.83 73.5318C225.89 72.6918 223.04 72.2718 220.28 72.2718C217.82 72.2718 215.84 72.5418 214.34 73.0818C212.84 73.5618 211.76 74.2217 211.1 75.0617C210.44 75.9017 210.11 76.8617 210.11 77.9418C210.11 79.3218 210.74 80.4318 212 81.2718C213.32 82.0518 215.03 82.7118 217.13 83.2518C219.29 83.7318 221.63 84.2418 224.15 84.7817C226.73 85.3218 229.28 86.0118 231.8 86.8518C234.38 87.6318 236.72 88.7118 238.82 90.0918C240.92 91.4118 242.6 93.1818 243.86 95.4018C245.18 97.5618 245.84 100.292 245.84 103.592C245.84 107.252 244.79 110.642 242.69 113.762C240.65 116.822 237.56 119.282 233.42 121.142C229.34 123.002 224.18 123.932 217.94 123.932ZM313.201 73.0818C316.981 73.0818 320.341 73.8618 323.281 75.4217C326.281 76.9218 328.621 79.2618 330.301 82.4418C332.041 85.6218 332.911 89.7318 332.911 94.7718V122.672H315.811V97.5618C315.811 94.0818 315.151 91.5618 313.831 90.0018C312.511 88.3818 310.711 87.5718 308.431 87.5718C306.811 87.5718 305.341 87.9618 304.021 88.7418C302.701 89.5218 301.681 90.7218 300.961 92.3418C300.241 93.9018 299.881 95.9418 299.881 98.4618V122.672H282.781V97.5618C282.781 94.0818 282.121 91.5618 280.801 90.0018C279.541 88.3818 277.741 87.5718 275.401 87.5718C273.721 87.5718 272.221 87.9618 270.901 88.7418C269.641 89.5218 268.621 90.7218 267.841 92.3418C267.121 93.9018 266.761 95.9418 266.761 98.4618V122.672H249.661V73.8917H265.951V87.4818L262.711 83.6118C264.511 80.1318 266.971 77.5218 270.091 75.7818C273.211 73.9818 276.691 73.0818 280.531 73.0818C284.911 73.0818 288.751 74.2218 292.051 76.5018C295.411 78.7218 297.661 82.2018 298.801 86.9418L293.221 85.7718C294.961 81.8118 297.571 78.7218 301.051 76.5018C304.591 74.2218 308.641 73.0818 313.201 73.0818ZM369.894 122.672V113.582L368.724 111.332V94.5918C368.724 91.8918 367.884 89.8218 366.204 88.3818C364.584 86.8818 361.974 86.1318 358.374 86.1318C356.034 86.1318 353.664 86.5218 351.264 87.3018C348.864 88.0218 346.824 89.0418 345.144 90.3618L339.384 78.7517C342.144 76.9518 345.444 75.5718 349.284 74.6117C353.184 73.5918 357.054 73.0818 360.894 73.0818C368.814 73.0818 374.934 74.9118 379.254 78.5718C383.634 82.1718 385.824 87.8418 385.824 95.5818V122.672H369.894ZM355.494 123.482C351.594 123.482 348.294 122.822 345.594 121.502C342.894 120.182 340.824 118.382 339.384 116.102C338.004 113.822 337.314 111.272 337.314 108.452C337.314 105.452 338.064 102.872 339.564 100.712C341.124 98.4918 343.494 96.8118 346.674 95.6718C349.854 94.4718 353.964 93.8718 359.004 93.8718H370.524V102.782H361.344C358.584 102.782 356.634 103.232 355.494 104.132C354.414 105.032 353.874 106.232 353.874 107.732C353.874 109.232 354.444 110.432 355.584 111.332C356.724 112.232 358.284 112.682 360.264 112.682C362.124 112.682 363.804 112.232 365.304 111.332C366.864 110.372 368.004 108.932 368.724 107.012L371.064 113.312C370.164 116.672 368.394 119.222 365.754 120.962C363.174 122.642 359.754 123.482 355.494 123.482ZM393.018 122.672V73.8917H409.308V88.1118L406.878 84.0618C408.318 80.4018 410.658 77.6718 413.898 75.8717C417.138 74.0118 421.068 73.0818 425.688 73.0818V88.4718C424.908 88.3518 424.218 88.2918 423.618 88.2918C423.078 88.2318 422.478 88.2018 421.818 88.2018C418.338 88.2018 415.518 89.1618 413.358 91.0818C411.198 92.9418 410.118 96.0018 410.118 100.262V122.672H393.018ZM452.419 123.482C446.179 123.482 441.319 121.952 437.839 118.892C434.359 115.772 432.619 111.092 432.619 104.852V63.0017H449.719V104.672C449.719 106.412 450.199 107.792 451.159 108.812C452.119 109.772 453.349 110.252 454.849 110.252C456.889 110.252 458.629 109.742 460.069 108.722L464.299 120.692C462.859 121.652 461.089 122.342 458.989 122.762C456.889 123.242 454.699 123.482 452.419 123.482ZM425.509 88.4718V75.6918H460.879V88.4718H425.509Z" fill="#0E7888"/>
<path d="M490.243 123.932C485.083 123.932 480.103 123.302 475.303 122.042C470.563 120.722 466.693 119.042 463.693 117.002L469.543 103.862C472.363 105.662 475.603 107.162 479.263 108.362C482.983 109.502 486.673 110.072 490.333 110.072C492.793 110.072 494.773 109.862 496.273 109.442C497.773 108.962 498.853 108.362 499.513 107.642C500.233 106.862 500.593 105.962 500.593 104.942C500.593 103.502 499.933 102.362 498.613 101.522C497.293 100.682 495.583 99.9918 493.483 99.4518C491.383 98.9118 489.043 98.3718 486.463 97.8318C483.943 97.2918 481.393 96.6018 478.813 95.7618C476.293 94.9218 473.983 93.8418 471.883 92.5218C469.783 91.1418 468.073 89.3718 466.753 87.2118C465.433 84.9918 464.773 82.2018 464.773 78.8418C464.773 75.0618 465.793 71.6418 467.833 68.5818C469.933 65.5218 473.053 63.0618 477.193 61.2018C481.333 59.3417 486.493 58.4117 492.673 58.4117C496.813 58.4117 500.863 58.8917 504.823 59.8518C508.843 60.7518 512.413 62.1017 515.533 63.9017L510.043 77.1317C507.043 75.5117 504.073 74.3117 501.133 73.5318C498.193 72.6918 495.343 72.2718 492.583 72.2718C490.123 72.2718 488.143 72.5418 486.643 73.0818C485.143 73.5618 484.063 74.2217 483.403 75.0617C482.743 75.9017 482.413 76.8617 482.413 77.9418C482.413 79.3218 483.043 80.4318 484.303 81.2718C485.623 82.0518 487.333 82.7118 489.433 83.2518C491.593 83.7318 493.933 84.2418 496.453 84.7817C499.033 85.3218 501.583 86.0118 504.103 86.8518C506.683 87.6318 509.023 88.7118 511.123 90.0918C513.223 91.4118 514.903 93.1818 516.163 95.4018C517.483 97.5618 518.143 100.292 518.143 103.592C518.143 107.252 517.093 110.642 514.993 113.762C512.953 116.822 509.863 119.282 505.723 121.142C501.643 123.002 496.483 123.932 490.243 123.932ZM546.894 123.482C541.494 123.482 536.664 122.402 532.404 120.242C528.204 118.082 524.904 115.112 522.504 111.332C520.104 107.492 518.904 103.112 518.904 98.1918C518.904 93.2718 520.104 88.9218 522.504 85.1418C524.904 81.3618 528.204 78.4218 532.404 76.3217C536.664 74.1618 541.494 73.0818 546.894 73.0818C552.414 73.0818 557.184 74.2518 561.204 76.5918C565.224 78.9318 568.074 82.2318 569.754 86.4918L556.524 93.2418C555.384 90.9618 553.974 89.3118 552.294 88.2918C550.614 87.2118 548.784 86.6718 546.804 86.6718C544.824 86.6718 543.024 87.1218 541.404 88.0218C539.784 88.9218 538.494 90.2418 537.534 91.9818C536.634 93.6618 536.184 95.7318 536.184 98.1918C536.184 100.712 536.634 102.842 537.534 104.582C538.494 106.322 539.784 107.642 541.404 108.542C543.024 109.442 544.824 109.892 546.804 109.892C548.784 109.892 550.614 109.382 552.294 108.362C553.974 107.282 555.384 105.602 556.524 103.322L569.754 110.072C568.074 114.332 565.224 117.632 561.204 119.972C557.184 122.312 552.414 123.482 546.894 123.482ZM572.593 122.672V73.8917H588.883V88.1118L586.453 84.0618C587.893 80.4018 590.233 77.6718 593.473 75.8717C596.713 74.0118 600.643 73.0818 605.263 73.0818V88.4718C604.483 88.3518 603.793 88.2918 603.193 88.2918C602.653 88.2318 602.053 88.2018 601.393 88.2018C597.913 88.2018 595.093 89.1618 592.933 91.0818C590.773 92.9418 589.693 96.0018 589.693 100.262V122.672H572.593ZM633.84 123.482C628.08 123.482 623.04 122.402 618.72 120.242C614.46 118.022 611.13 115.022 608.73 111.242C606.39 107.402 605.22 103.052 605.22 98.1918C605.22 93.3318 606.36 89.0118 608.64 85.2318C610.98 81.3918 614.19 78.4218 618.27 76.3217C622.35 74.1618 626.94 73.0818 632.04 73.0818C636.84 73.0818 641.22 74.0718 645.18 76.0518C649.14 77.9718 652.29 80.8218 654.63 84.6018C656.97 88.3818 658.14 92.9718 658.14 98.3718C658.14 98.9718 658.11 99.6618 658.05 100.442C657.99 101.222 657.93 101.942 657.87 102.602H619.26V93.6018H648.78L642.3 96.1218C642.36 93.9018 641.94 91.9818 641.04 90.3618C640.2 88.7418 639 87.4818 637.44 86.5818C635.94 85.6818 634.17 85.2318 632.13 85.2318C630.09 85.2318 628.29 85.6818 626.73 86.5818C625.23 87.4818 624.06 88.7718 623.22 90.4518C622.38 92.0718 621.96 93.9918 621.96 96.2118V98.8218C621.96 101.222 622.44 103.292 623.4 105.032C624.42 106.772 625.86 108.122 627.72 109.082C629.58 109.982 631.8 110.432 634.38 110.432C636.78 110.432 638.82 110.102 640.5 109.442C642.24 108.722 643.95 107.642 645.63 106.202L654.63 115.562C652.29 118.142 649.41 120.122 645.99 121.502C642.57 122.822 638.52 123.482 633.84 123.482ZM673.155 122.672L655.785 73.8917H671.985L685.755 114.662H678.015L692.325 73.8917H706.905L720.675 114.662H713.115L727.335 73.8917H742.365L724.995 122.672H708.435L696.735 88.9218H701.775L689.715 122.672H673.155ZM760.929 123.482C756.789 123.482 752.739 123.002 748.779 122.042C744.879 121.082 741.729 119.882 739.329 118.442L744.459 106.742C746.739 108.122 749.409 109.232 752.469 110.072C755.529 110.852 758.529 111.242 761.469 111.242C764.349 111.242 766.329 110.942 767.409 110.342C768.549 109.742 769.119 108.932 769.119 107.912C769.119 106.952 768.579 106.262 767.499 105.842C766.479 105.362 765.099 105.002 763.359 104.762C761.679 104.522 759.819 104.252 757.779 103.952C755.739 103.652 753.669 103.262 751.569 102.782C749.529 102.242 747.639 101.462 745.899 100.442C744.219 99.3618 742.869 97.9218 741.849 96.1218C740.829 94.3218 740.319 92.0418 740.319 89.2818C740.319 86.1618 741.219 83.4018 743.019 81.0018C744.879 78.5418 747.579 76.6218 751.119 75.2418C754.659 73.8018 758.979 73.0818 764.079 73.0818C767.499 73.0818 770.949 73.4418 774.429 74.1617C777.969 74.8218 780.939 75.8418 783.339 77.2218L778.209 88.8318C775.809 87.4518 773.409 86.5218 771.009 86.0418C768.609 85.5018 766.329 85.2318 764.169 85.2318C761.289 85.2318 759.249 85.5618 758.049 86.2218C756.909 86.8818 756.339 87.6918 756.339 88.6518C756.339 89.6118 756.849 90.3618 757.869 90.9018C758.889 91.3818 760.239 91.7718 761.919 92.0718C763.659 92.3118 765.549 92.5818 767.589 92.8818C769.629 93.1218 771.669 93.5118 773.709 94.0518C775.809 94.5918 777.699 95.4018 779.379 96.4818C781.119 97.5018 782.499 98.9118 783.519 100.712C784.539 102.452 785.049 104.702 785.049 107.462C785.049 110.462 784.119 113.162 782.259 115.562C780.459 117.962 777.759 119.882 774.159 121.322C770.619 122.762 766.209 123.482 760.929 123.482Z" fill="#213F51"/>
<path d="M238.26 187.672V163.152H228.66V159.672H251.82V163.152H242.22V187.672H238.26ZM258.217 171.752H272.617V175.152H258.217V171.752ZM258.577 184.192H274.897V187.672H254.577V159.672H274.337V163.152H258.577V184.192ZM292.254 187.992C290.121 187.992 288.148 187.645 286.334 186.952C284.548 186.232 282.988 185.232 281.654 183.952C280.348 182.645 279.321 181.125 278.574 179.392C277.828 177.658 277.454 175.752 277.454 173.672C277.454 171.592 277.828 169.685 278.574 167.952C279.321 166.218 280.361 164.712 281.694 163.432C283.028 162.125 284.588 161.125 286.374 160.432C288.188 159.712 290.161 159.352 292.294 159.352C294.454 159.352 296.441 159.725 298.254 160.472C300.094 161.192 301.654 162.272 302.934 163.712L300.334 166.232C299.268 165.112 298.068 164.285 296.734 163.752C295.401 163.192 293.974 162.912 292.454 162.912C290.881 162.912 289.414 163.178 288.054 163.712C286.721 164.245 285.561 164.992 284.574 165.952C283.588 166.912 282.814 168.058 282.254 169.392C281.721 170.698 281.454 172.125 281.454 173.672C281.454 175.218 281.721 176.658 282.254 177.992C282.814 179.298 283.588 180.432 284.574 181.392C285.561 182.352 286.721 183.098 288.054 183.632C289.414 184.165 290.881 184.432 292.454 184.432C293.974 184.432 295.401 184.165 296.734 183.632C298.068 183.072 299.268 182.218 300.334 181.072L302.934 183.592C301.654 185.032 300.094 186.125 298.254 186.872C296.441 187.618 294.441 187.992 292.254 187.992ZM327.121 159.672H331.121V187.672H327.121V159.672ZM311.041 187.672H307.041V159.672H311.041V187.672ZM327.481 175.192H310.641V171.712H327.481V175.192ZM337.902 187.672V159.672H341.182L359.702 182.672H357.982V159.672H361.982V187.672H358.702L340.182 164.672H341.902V187.672H337.902ZM368.763 187.672V159.672H372.763V187.672H368.763ZM392.065 187.992C389.932 187.992 387.959 187.645 386.145 186.952C384.359 186.232 382.799 185.232 381.465 183.952C380.159 182.645 379.132 181.125 378.385 179.392C377.639 177.658 377.265 175.752 377.265 173.672C377.265 171.592 377.639 169.685 378.385 167.952C379.132 166.218 380.172 164.712 381.505 163.432C382.839 162.125 384.399 161.125 386.185 160.432C387.999 159.712 389.972 159.352 392.105 159.352C394.265 159.352 396.252 159.725 398.065 160.472C399.905 161.192 401.465 162.272 402.745 163.712L400.145 166.232C399.079 165.112 397.879 164.285 396.545 163.752C395.212 163.192 393.785 162.912 392.265 162.912C390.692 162.912 389.225 163.178 387.865 163.712C386.532 164.245 385.372 164.992 384.385 165.952C383.399 166.912 382.625 168.058 382.065 169.392C381.532 170.698 381.265 172.125 381.265 173.672C381.265 175.218 381.532 176.658 382.065 177.992C382.625 179.298 383.399 180.432 384.385 181.392C385.372 182.352 386.532 183.098 387.865 183.632C389.225 184.165 390.692 184.432 392.265 184.432C393.785 184.432 395.212 184.165 396.545 183.632C397.879 183.072 399.079 182.218 400.145 181.072L402.745 183.592C401.465 185.032 399.905 186.125 398.065 186.872C396.252 187.618 394.252 187.992 392.065 187.992ZM401.948 187.672L414.628 159.672H418.588L431.308 187.672H427.108L415.788 161.912H417.388L406.068 187.672H401.948ZM407.348 180.672L408.428 177.472H424.188L425.348 180.672H407.348ZM433.884 187.672V159.672H437.884V184.192H453.044V187.672H433.884ZM473.337 187.992C471.203 187.992 469.163 187.672 467.217 187.032C465.27 186.365 463.737 185.512 462.617 184.472L464.097 181.352C465.163 182.285 466.523 183.058 468.177 183.672C469.83 184.285 471.55 184.592 473.337 184.592C474.963 184.592 476.283 184.405 477.297 184.032C478.31 183.658 479.057 183.152 479.537 182.512C480.017 181.845 480.257 181.098 480.257 180.272C480.257 179.312 479.937 178.538 479.297 177.952C478.683 177.365 477.87 176.898 476.857 176.552C475.87 176.178 474.777 175.858 473.577 175.592C472.377 175.325 471.163 175.018 469.937 174.672C468.737 174.298 467.63 173.832 466.617 173.272C465.63 172.712 464.83 171.965 464.217 171.032C463.603 170.072 463.297 168.845 463.297 167.352C463.297 165.912 463.67 164.592 464.417 163.392C465.19 162.165 466.363 161.192 467.937 160.472C469.537 159.725 471.563 159.352 474.017 159.352C475.643 159.352 477.257 159.565 478.857 159.992C480.457 160.418 481.843 161.032 483.017 161.832L481.697 165.032C480.497 164.232 479.23 163.658 477.897 163.312C476.563 162.938 475.27 162.752 474.017 162.752C472.443 162.752 471.15 162.952 470.137 163.352C469.123 163.752 468.377 164.285 467.897 164.952C467.443 165.618 467.217 166.365 467.217 167.192C467.217 168.178 467.523 168.965 468.137 169.552C468.777 170.138 469.59 170.605 470.577 170.952C471.59 171.298 472.697 171.618 473.897 171.912C475.097 172.178 476.297 172.485 477.497 172.832C478.723 173.178 479.83 173.632 480.817 174.192C481.83 174.752 482.643 175.498 483.257 176.432C483.87 177.365 484.177 178.565 484.177 180.032C484.177 181.445 483.79 182.765 483.017 183.992C482.243 185.192 481.043 186.165 479.417 186.912C477.817 187.632 475.79 187.992 473.337 187.992ZM492.06 171.752H506.46V175.152H492.06V171.752ZM492.42 184.192H508.74V187.672H488.42V159.672H508.18V163.152H492.42V184.192ZM513.617 187.672V159.672H524.537C526.991 159.672 529.084 160.058 530.817 160.832C532.551 161.605 533.884 162.725 534.817 164.192C535.751 165.658 536.217 167.405 536.217 169.432C536.217 171.458 535.751 173.205 534.817 174.672C533.884 176.112 532.551 177.218 530.817 177.992C529.084 178.765 526.991 179.152 524.537 179.152H515.817L517.617 177.312V187.672H513.617ZM532.337 187.672L525.217 177.512H529.497L536.697 187.672H532.337ZM517.617 177.712L515.817 175.752H524.417C526.977 175.752 528.911 175.205 530.217 174.112C531.551 172.992 532.217 171.432 532.217 169.432C532.217 167.432 531.551 165.885 530.217 164.792C528.911 163.698 526.977 163.152 524.417 163.152H515.817L517.617 161.152V177.712ZM549.16 187.672L536.84 159.672H541.16L552.48 185.512H550L561.4 159.672H565.4L553.12 187.672H549.16ZM567.37 187.672V159.672H571.37V187.672H567.37ZM590.673 187.992C588.54 187.992 586.566 187.645 584.753 186.952C582.966 186.232 581.406 185.232 580.073 183.952C578.766 182.645 577.74 181.125 576.993 179.392C576.246 177.658 575.873 175.752 575.873 173.672C575.873 171.592 576.246 169.685 576.993 167.952C577.74 166.218 578.78 164.712 580.113 163.432C581.446 162.125 583.006 161.125 584.793 160.432C586.606 159.712 588.58 159.352 590.713 159.352C592.873 159.352 594.86 159.725 596.673 160.472C598.513 161.192 600.073 162.272 601.353 163.712L598.753 166.232C597.686 165.112 596.486 164.285 595.153 163.752C593.82 163.192 592.393 162.912 590.873 162.912C589.3 162.912 587.833 163.178 586.473 163.712C585.14 164.245 583.98 164.992 582.993 165.952C582.006 166.912 581.233 168.058 580.673 169.392C580.14 170.698 579.873 172.125 579.873 173.672C579.873 175.218 580.14 176.658 580.673 177.992C581.233 179.298 582.006 180.432 582.993 181.392C583.98 182.352 585.14 183.098 586.473 183.632C587.833 184.165 589.3 184.432 590.873 184.432C592.393 184.432 593.82 184.165 595.153 183.632C596.486 183.072 597.686 182.218 598.753 181.072L601.353 183.592C600.073 185.032 598.513 186.125 596.673 186.872C594.86 187.618 592.86 187.992 590.673 187.992ZM609.099 171.752H623.499V175.152H609.099V171.752ZM609.459 184.192H625.779V187.672H605.459V159.672H625.219V163.152H609.459V184.192ZM638.816 187.992C636.683 187.992 634.643 187.672 632.696 187.032C630.75 186.365 629.216 185.512 628.096 184.472L629.576 181.352C630.643 182.285 632.003 183.058 633.656 183.672C635.31 184.285 637.03 184.592 638.816 184.592C640.443 184.592 641.763 184.405 642.776 184.032C643.79 183.658 644.536 183.152 645.016 182.512C645.496 181.845 645.736 181.098 645.736 180.272C645.736 179.312 645.416 178.538 644.776 177.952C644.163 177.365 643.35 176.898 642.336 176.552C641.35 176.178 640.256 175.858 639.056 175.592C637.856 175.325 636.643 175.018 635.416 174.672C634.216 174.298 633.11 173.832 632.096 173.272C631.11 172.712 630.31 171.965 629.696 171.032C629.083 170.072 628.776 168.845 628.776 167.352C628.776 165.912 629.15 164.592 629.896 163.392C630.67 162.165 631.843 161.192 633.416 160.472C635.016 159.725 637.043 159.352 639.496 159.352C641.123 159.352 642.736 159.565 644.336 159.992C645.936 160.418 647.323 161.032 648.496 161.832L647.176 165.032C645.976 164.232 644.71 163.658 643.376 163.312C642.043 162.938 640.75 162.752 639.496 162.752C637.923 162.752 636.63 162.952 635.616 163.352C634.603 163.752 633.856 164.285 633.376 164.952C632.923 165.618 632.696 166.365 632.696 167.192C632.696 168.178 633.003 168.965 633.616 169.552C634.256 170.138 635.07 170.605 636.056 170.952C637.07 171.298 638.176 171.618 639.376 171.912C640.576 172.178 641.776 172.485 642.976 172.832C644.203 173.178 645.31 173.632 646.296 174.192C647.31 174.752 648.123 175.498 648.736 176.432C649.35 177.365 649.656 178.565 649.656 180.032C649.656 181.445 649.27 182.765 648.496 183.992C647.723 185.192 646.523 186.165 644.896 186.912C643.296 187.632 641.27 187.992 638.816 187.992ZM663.042 187.672V159.672H667.042V184.192H682.202V187.672H663.042ZM685.192 187.672V159.672H689.192V184.192H704.352V187.672H685.192ZM719.354 187.992C717.221 187.992 715.248 187.645 713.434 186.952C711.648 186.232 710.088 185.232 708.754 183.952C707.448 182.645 706.421 181.125 705.674 179.392C704.928 177.658 704.554 175.752 704.554 173.672C704.554 171.592 704.928 169.685 705.674 167.952C706.421 166.218 707.461 164.712 708.794 163.432C710.128 162.125 711.688 161.125 713.474 160.432C715.288 159.712 717.261 159.352 719.394 159.352C721.554 159.352 723.541 159.725 725.354 160.472C727.194 161.192 728.754 162.272 730.034 163.712L727.434 166.232C726.368 165.112 725.168 164.285 723.834 163.752C722.501 163.192 721.074 162.912 719.554 162.912C717.981 162.912 716.514 163.178 715.154 163.712C713.821 164.245 712.661 164.992 711.674 165.952C710.688 166.912 709.914 168.058 709.354 169.392C708.821 170.698 708.554 172.125 708.554 173.672C708.554 175.218 708.821 176.658 709.354 177.992C709.914 179.298 710.688 180.432 711.674 181.392C712.661 182.352 713.821 183.098 715.154 183.632C716.514 184.165 717.981 184.432 719.554 184.432C721.074 184.432 722.501 184.165 723.834 183.632C725.168 183.072 726.368 182.218 727.434 181.072L730.034 183.592C728.754 185.032 727.194 186.125 725.354 186.872C723.541 187.618 721.541 187.992 719.354 187.992Z" fill="#515252"/>
<defs>
<linearGradient id="paint0_linear_28_38" x1="82.5049" y1="0.671753" x2="82.5049" y2="222.291" gradientUnits="userSpaceOnUse">
<stop offset="0.290856" stop-color="#2F5A65"/>
<stop offset="0.669902" stop-color="#9EBAC0"/>
</linearGradient>
<linearGradient id="paint1_linear_28_38" x1="82.5049" y1="0.671753" x2="82.5049" y2="222.291" gradientUnits="userSpaceOnUse">
<stop offset="0.541978" stop-color="#213F51"/>
<stop offset="0.72806" stop-color="#1D353A"/>
</linearGradient>
<linearGradient id="paint2_linear_28_38" x1="82.5049" y1="0.671753" x2="82.5049" y2="222.291" gradientUnits="userSpaceOnUse">
<stop offset="0.331731" stop-color="white"/>
<stop offset="0.706731" stop-color="#A2A5A6"/>
</linearGradient>
<linearGradient id="paint3_linear_28_38" x1="82.5049" y1="0.671753" x2="82.5049" y2="222.291" gradientUnits="userSpaceOnUse">
<stop offset="0.870192" stop-color="#213F51"/>
<stop offset="1" stop-color="#0B2025"/>
</linearGradient>
<linearGradient id="paint4_linear_28_38" x1="82.5049" y1="0.671753" x2="82.5049" y2="222.291" gradientUnits="userSpaceOnUse">
<stop offset="0.269231" stop-color="#010809"/>
<stop offset="0.5625" stop-color="#213F51"/>
</linearGradient>
</defs>
</svg>
