<svg width="600" height="120" viewBox="0 280 600 120" fill="none" xmlns="http://www.w3.org/2000/svg">
<path d="M28.44 347.932C23.28 347.932 18.3 347.302 13.5 346.042C8.76 344.722 4.89 343.042 1.89 341.002L7.74 327.862C10.56 329.662 13.8 331.162 17.46 332.362C21.18 333.502 24.87 334.072 28.53 334.072C30.99 334.072 32.97 333.862 34.47 333.442C35.97 332.962 37.05 332.362 37.71 331.642C38.43 330.862 38.79 329.962 38.79 328.942C38.79 327.502 38.13 326.362 36.81 325.522C35.49 324.682 33.78 323.992 31.68 323.452C29.58 322.912 27.24 322.372 24.66 321.832C22.14 321.292 19.59 320.602 17.01 319.762C14.49 318.922 12.18 317.842 10.08 316.522C7.98 315.142 6.27 313.372 4.95 311.212C3.63 308.992 2.97 306.202 2.97 302.842C2.97 299.062 3.99 295.642 6.03 292.582C8.13 289.522 11.25 287.062 15.39 285.202C19.53 283.342 24.69 282.412 30.87 282.412C35.01 282.412 39.06 282.892 43.02 283.852C47.04 284.752 50.61 286.102 53.73 287.902L48.24 301.132C45.24 299.512 42.27 298.312 39.33 297.532C36.39 296.692 33.54 296.272 30.78 296.272C28.32 296.272 26.34 296.542 24.84 297.082C23.34 297.562 22.26 298.222 21.6 299.062C20.94 299.902 20.61 300.862 20.61 301.942C20.61 303.322 21.24 304.432 22.5 305.272C23.82 306.052 25.53 306.712 27.63 307.252C29.79 307.732 32.13 308.242 34.65 308.782C37.23 309.322 39.78 310.012 42.3 310.852C44.88 311.632 47.22 312.712 49.32 314.092C51.42 315.412 53.1 317.182 54.36 319.402C55.68 321.562 56.34 324.292 56.34 327.592C56.34 331.252 55.29 334.642 53.19 337.762C51.15 340.822 48.06 343.282 43.92 345.142C39.84 347.002 34.68 347.932 28.44 347.932ZM123.701 297.082C127.481 297.082 130.841 297.862 133.781 299.422C136.781 300.922 139.121 303.262 140.801 306.442C142.541 309.622 143.411 313.732 143.411 318.772V346.672H126.311V321.562C126.311 318.082 125.651 315.562 124.331 314.002C123.011 312.382 121.211 311.572 118.931 311.572C117.311 311.572 115.841 311.962 114.521 312.742C113.201 313.522 112.181 314.722 111.461 316.342C110.741 317.902 110.381 319.942 110.381 322.462V346.672H93.2815V321.562C93.2815 318.082 92.6215 315.562 91.3015 314.002C90.0415 312.382 88.2415 311.572 85.9015 311.572C84.2215 311.572 82.7215 311.962 81.4015 312.742C80.1415 313.522 79.1215 314.722 78.3415 316.342C77.6215 317.902 77.2615 319.942 77.2615 322.462V346.672H60.1615V297.892H76.4515V311.482L73.2115 307.612C75.0115 304.132 77.4715 301.522 80.5915 299.782C83.7115 297.982 87.1915 297.082 91.0315 297.082C95.4115 297.082 99.2515 298.222 102.551 300.502C105.911 302.722 108.161 306.202 109.301 310.942L103.721 309.772C105.461 305.812 108.071 302.722 111.551 300.502C115.091 298.222 119.141 297.082 123.701 297.082ZM180.394 346.672V337.582L179.224 335.332V318.592C179.224 315.892 178.384 313.822 176.704 312.382C175.084 310.882 172.474 310.132 168.874 310.132C166.534 310.132 164.164 310.522 161.764 311.302C159.364 312.022 157.324 313.042 155.644 314.362L149.884 302.752C152.644 300.952 155.944 299.572 159.784 298.612C163.684 297.592 167.554 297.082 171.394 297.082C179.314 297.082 185.434 298.912 189.754 302.572C194.134 306.172 196.324 311.842 196.324 319.582V346.672H180.394ZM165.994 347.482C162.094 347.482 158.794 346.822 156.094 345.502C153.394 344.182 151.324 342.382 149.884 340.102C148.504 337.822 147.814 335.272 147.814 332.452C147.814 329.452 148.564 326.872 150.064 324.712C151.624 322.492 153.994 320.812 157.174 319.672C160.354 318.472 164.464 317.872 169.504 317.872H181.024V326.782H171.844C169.084 326.782 167.134 327.232 165.994 328.132C164.914 329.032 164.374 330.232 164.374 331.732C164.374 333.232 164.944 334.432 166.084 335.332C167.224 336.232 168.784 336.682 170.764 336.682C172.624 336.682 174.304 336.232 175.804 335.332C177.364 334.372 178.504 332.932 179.224 331.012L181.564 337.312C180.664 340.672 178.894 343.222 176.254 344.962C173.674 346.642 170.254 347.482 165.994 347.482ZM203.518 346.672V297.892H219.808V312.112L217.378 308.062C218.818 304.402 221.158 301.672 224.398 299.872C227.638 298.012 231.568 297.082 236.188 297.082V312.472C235.408 312.352 234.718 312.292 234.118 312.292C233.578 312.232 232.978 312.202 232.318 312.202C228.838 312.202 226.018 313.162 223.858 315.082C221.698 316.942 220.618 320.002 220.618 324.262V346.672H203.518ZM262.919 347.482C256.679 347.482 251.819 345.952 248.339 342.892C244.859 339.772 243.119 335.092 243.119 328.852V287.002H260.219V328.672C260.219 330.412 260.699 331.792 261.659 332.812C262.619 333.772 263.849 334.252 265.349 334.252C267.389 334.252 269.129 333.742 270.569 332.722L274.799 344.692C273.359 345.652 271.589 346.342 269.489 346.762C267.389 347.242 265.199 347.482 262.919 347.482ZM236.009 312.472V299.692H271.379V312.472H236.009Z" fill="#2F5A65"/>
<path d="M300.743 347.932C295.583 347.932 290.603 347.302 285.803 346.042C281.063 344.722 277.193 343.042 274.193 341.002L280.043 327.862C282.863 329.662 286.103 331.162 289.763 332.362C293.483 333.502 297.173 334.072 300.833 334.072C303.293 334.072 305.273 333.862 306.773 333.442C308.273 332.962 309.353 332.362 310.013 331.642C310.733 330.862 311.093 329.962 311.093 328.942C311.093 327.502 310.433 326.362 309.113 325.522C307.793 324.682 306.083 323.992 303.983 323.452C301.883 322.912 299.543 322.372 296.963 321.832C294.443 321.292 291.893 320.602 289.313 319.762C286.793 318.922 284.483 317.842 282.383 316.522C280.283 315.142 278.573 313.372 277.253 311.212C275.933 308.992 275.273 306.202 275.273 302.842C275.273 299.062 276.293 295.642 278.333 292.582C280.433 289.522 283.553 287.062 287.693 285.202C291.833 283.342 296.993 282.412 303.173 282.412C307.313 282.412 311.363 282.892 315.323 283.852C319.343 284.752 322.913 286.102 326.033 287.902L320.543 301.132C317.543 299.512 314.573 298.312 311.633 297.532C308.693 296.692 305.843 296.272 303.083 296.272C300.623 296.272 298.643 296.542 297.143 297.082C295.643 297.562 294.563 298.222 293.903 299.062C293.243 299.902 292.913 300.862 292.913 301.942C292.913 303.322 293.543 304.432 294.803 305.272C296.123 306.052 297.833 306.712 299.933 307.252C302.093 307.732 304.433 308.242 306.953 308.782C309.533 309.322 312.083 310.012 314.603 310.852C317.183 311.632 319.523 312.712 321.623 314.092C323.723 315.412 325.403 317.182 326.663 319.402C327.983 321.562 328.643 324.292 328.643 327.592C328.643 331.252 327.593 334.642 325.493 337.762C323.453 340.822 320.363 343.282 316.223 345.142C312.143 347.002 306.983 347.932 300.743 347.932ZM357.394 347.482C351.994 347.482 347.164 346.402 342.904 344.242C338.704 342.082 335.404 339.112 333.004 335.332C330.604 331.492 329.404 327.112 329.404 322.192C329.404 317.272 330.604 312.922 333.004 309.142C335.404 305.362 338.704 302.422 342.904 300.322C347.164 298.162 351.994 297.082 357.394 297.082C362.914 297.082 367.684 298.252 371.704 300.592C375.724 302.932 378.574 306.232 380.254 310.492L367.024 317.242C365.884 314.962 364.474 313.312 362.794 312.292C361.114 311.212 359.284 310.672 357.304 310.672C355.324 310.672 353.524 311.122 351.904 312.022C350.284 312.922 348.994 314.242 348.034 315.982C347.134 317.662 346.684 319.732 346.684 322.192C346.684 324.712 347.134 326.842 348.034 328.582C348.994 330.322 350.284 331.642 351.904 332.542C353.524 333.442 355.324 333.892 357.304 333.892C359.284 333.892 361.114 333.382 362.794 332.362C364.474 331.282 365.884 329.602 367.024 327.322L380.254 334.072C378.574 338.332 375.724 341.632 371.704 343.972C367.684 346.312 362.914 347.482 357.394 347.482ZM383.093 346.672V297.892H399.383V312.112L396.953 308.062C398.393 304.402 400.733 301.672 403.973 299.872C407.213 298.012 411.143 297.082 415.763 297.082V312.472C414.983 312.352 414.293 312.292 413.693 312.292C413.153 312.232 412.553 312.202 411.893 312.202C408.413 312.202 405.593 313.162 403.433 315.082C401.273 316.942 400.193 320.002 400.193 324.262V346.672H383.093ZM444.34 347.482C438.58 347.482 433.54 346.402 429.22 344.242C424.96 342.022 421.63 339.022 419.23 335.242C416.89 331.402 415.72 327.052 415.72 322.192C415.72 317.332 416.86 313.012 419.14 309.232C421.48 305.392 424.69 302.422 428.77 300.322C432.85 298.162 437.44 297.082 442.54 297.082C447.34 297.082 451.72 298.072 455.68 300.052C459.64 301.972 462.79 304.822 465.13 308.602C467.47 312.382 468.64 316.972 468.64 322.372C468.64 322.972 468.61 323.662 468.55 324.442C468.49 325.222 468.43 325.942 468.37 326.602H429.76V317.602H459.28L452.8 320.122C452.86 317.902 452.44 315.982 451.54 314.362C450.7 312.742 449.5 311.482 447.94 310.582C446.44 309.682 444.67 309.232 442.63 309.232C440.59 309.232 438.79 309.682 437.23 310.582C435.73 311.482 434.56 312.772 433.72 314.452C432.88 316.072 432.46 317.992 432.46 320.212V322.822C432.46 325.222 432.94 327.292 433.9 329.032C434.92 330.772 436.36 332.122 438.22 333.082C440.08 333.982 442.3 334.432 444.88 334.432C447.28 334.432 449.32 334.102 451 333.442C452.74 332.722 454.45 331.642 456.13 330.202L465.13 339.562C462.79 342.142 459.91 344.122 456.49 345.502C453.07 346.822 449.02 347.482 444.34 347.482ZM483.655 346.672L466.285 297.892H482.485L496.255 338.662H488.515L502.825 297.892H517.405L531.175 338.662H523.615L537.835 297.892H552.865L535.495 346.672H518.935L507.235 312.922H512.275L500.215 346.672H483.655ZM571.429 347.482C567.289 347.482 563.239 347.002 559.279 346.042C555.379 345.082 552.229 343.882 549.829 342.442L554.959 330.742C557.239 332.122 559.909 333.232 562.969 334.072C566.029 334.852 569.029 335.242 571.969 335.242C574.849 335.242 576.829 334.942 577.909 334.342C579.049 333.742 579.619 332.932 579.619 331.912C579.619 330.952 579.079 330.262 577.999 329.842C576.979 329.362 575.599 329.002 573.859 328.762C572.179 328.522 570.319 328.252 568.279 327.952C566.239 327.652 564.169 327.262 562.069 326.782C560.029 326.242 558.139 325.462 556.399 324.442C554.719 323.362 553.369 321.922 552.349 320.122C551.329 318.322 550.819 316.042 550.819 313.282C550.819 310.162 551.719 307.402 553.519 305.002C555.379 302.542 558.079 300.622 561.619 299.242C565.159 297.802 569.479 297.082 574.579 297.082C577.999 297.082 581.449 297.442 584.929 298.162C588.469 298.822 591.439 299.842 593.839 301.222L588.709 312.832C586.309 311.452 583.909 310.522 581.509 310.042C579.109 309.502 576.829 309.232 574.669 309.232C571.789 309.232 569.749 309.562 568.549 310.222C567.409 310.882 566.839 311.692 566.839 312.652C566.839 313.612 567.349 314.362 568.369 314.902C569.389 315.382 570.739 315.772 572.419 316.072C574.159 316.312 576.049 316.582 578.089 316.882C580.129 317.122 582.169 317.512 584.209 318.052C586.309 318.592 588.199 319.402 589.879 320.482C591.619 321.502 592.999 322.912 594.019 324.712C595.039 326.452 595.549 328.702 595.549 331.462C595.549 334.462 594.619 337.162 592.759 339.562C590.959 341.962 588.259 343.882 584.659 345.322C581.119 346.762 576.709 347.482 571.429 347.482Z" fill="#213F51"/>
<path d="M51.76 397.672V373.152H42.16V369.672H65.32V373.152H55.72V397.672H51.76ZM71.7166 381.752H86.1166V385.152H71.7166V381.752ZM72.0766 394.192H88.3966V397.672H68.0766V369.672H87.8366V373.152H72.0766V394.192ZM105.754 397.992C103.621 397.992 101.648 397.645 99.8344 396.952C98.0477 396.232 96.4877 395.232 95.1544 393.952C93.8477 392.645 92.821 391.125 92.0744 389.392C91.3277 387.658 90.9544 385.752 90.9544 383.672C90.9544 381.592 91.3277 379.685 92.0744 377.952C92.821 376.218 93.861 374.712 95.1944 373.432C96.5277 372.125 98.0877 371.125 99.8744 370.432C101.688 369.712 103.661 369.352 105.794 369.352C107.954 369.352 109.941 369.725 111.754 370.472C113.594 371.192 115.154 372.272 116.434 373.712L113.834 376.232C112.768 375.112 111.568 374.285 110.234 373.752C108.901 373.192 107.474 372.912 105.954 372.912C104.381 372.912 102.914 373.178 101.554 373.712C100.221 374.245 99.061 374.992 98.0744 375.952C97.0877 376.912 96.3144 378.058 95.7544 379.392C95.221 380.698 94.9544 382.125 94.9544 383.672C94.9544 385.218 95.221 386.658 95.7544 387.992C96.3144 389.298 97.0877 390.432 98.0744 391.392C99.061 392.352 100.221 393.098 101.554 393.632C102.914 394.165 104.381 394.432 105.954 394.432C107.474 394.432 108.901 394.165 110.234 393.632C111.568 393.072 112.768 392.218 113.834 391.072L116.434 393.592C115.154 395.032 113.594 396.125 111.754 396.872C109.941 397.618 107.941 397.992 105.754 397.992ZM140.621 369.672H144.621V397.672H140.621V369.672ZM124.541 397.672H120.541V369.672H124.541V397.672ZM140.981 385.192H124.141V381.712H140.981V385.192ZM151.402 397.672V369.672H154.682L173.202 392.672H171.482V369.672H175.482V397.672H172.202L153.682 374.672H155.402V397.672H151.402ZM182.263 397.672V369.672H186.263V397.672H182.263ZM205.565 397.992C203.432 397.992 201.459 397.645 199.645 396.952C197.859 396.232 196.299 395.232 194.965 393.952C193.659 392.645 192.632 391.125 191.885 389.392C191.139 387.658 190.765 385.752 190.765 383.672C190.765 381.592 191.139 379.685 191.885 377.952C192.632 376.218 193.672 374.712 195.005 373.432C196.339 372.125 197.899 371.125 199.685 370.432C201.499 369.712 203.472 369.352 205.605 369.352C207.765 369.352 209.752 369.725 211.565 370.472C213.405 371.192 214.965 372.272 216.245 373.712L213.645 376.232C212.579 375.112 211.379 374.285 210.045 373.752C208.712 373.192 207.285 372.912 205.765 372.912C204.192 372.912 202.725 373.178 201.365 373.712C200.032 374.245 198.872 374.992 197.885 375.952C196.899 376.912 196.125 378.058 195.565 379.392C195.032 380.698 194.765 382.125 194.765 383.672C194.765 385.218 195.032 386.658 195.565 387.992C196.125 389.298 196.899 390.432 197.885 391.392C198.872 392.352 200.032 393.098 201.365 393.632C202.725 394.165 204.192 394.432 205.765 394.432C207.285 394.432 208.712 394.165 210.045 393.632C211.379 393.072 212.579 392.218 213.645 391.072L216.245 393.592C214.965 395.032 213.405 396.125 211.565 396.872C209.752 397.618 207.752 397.992 205.565 397.992ZM215.448 397.672L228.128 369.672H232.088L244.808 397.672H240.608L229.288 371.912H230.888L219.568 397.672H215.448ZM220.848 390.672L221.928 387.472H237.688L238.848 390.672H220.848ZM247.384 397.672V369.672H251.384V394.192H266.544V397.672H247.384ZM286.837 397.992C284.703 397.992 282.663 397.672 280.717 397.032C278.77 396.365 277.237 395.512 276.117 394.472L277.597 391.352C278.663 392.285 280.023 393.058 281.677 393.672C283.33 394.285 285.05 394.592 286.837 394.592C288.463 394.592 289.783 394.405 290.797 394.032C291.81 393.658 292.557 393.152 293.037 392.512C293.517 391.845 293.757 391.098 293.757 390.272C293.757 389.312 293.437 388.538 292.797 387.952C292.183 387.365 291.37 386.898 290.357 386.552C289.37 386.178 288.277 385.858 287.077 385.592C285.877 385.325 284.663 385.018 283.437 384.672C282.237 384.298 281.13 383.832 280.117 383.272C279.13 382.712 278.33 381.965 277.717 381.032C277.103 380.072 276.797 378.845 276.797 377.352C276.797 375.912 277.17 374.592 277.917 373.392C278.69 372.165 279.863 371.192 281.437 370.472C283.037 369.725 285.063 369.352 287.517 369.352C289.143 369.352 290.757 369.565 292.357 369.992C293.957 370.418 295.343 371.032 296.517 371.832L295.197 375.032C293.997 374.232 292.73 373.658 291.397 373.312C290.063 372.938 288.77 372.752 287.517 372.752C285.943 372.752 284.65 372.952 283.637 373.352C282.623 373.752 281.877 374.285 281.397 374.952C280.943 375.618 280.717 376.365 280.717 377.192C280.717 378.178 281.023 378.965 281.637 379.552C282.277 380.138 283.09 380.605 284.077 380.952C285.09 381.298 286.197 381.618 287.397 381.912C288.597 382.178 289.797 382.485 290.997 382.832C292.223 383.178 293.33 383.632 294.317 384.192C295.33 384.752 296.143 385.498 296.757 386.432C297.37 387.365 297.677 388.565 297.677 390.032C297.677 391.445 297.29 392.765 296.517 393.992C295.743 395.192 294.543 396.165 292.917 396.912C291.317 397.632 289.29 397.992 286.837 397.992ZM305.56 381.752H319.96V385.152H305.56V381.752ZM305.92 394.192H322.24V397.672H301.92V369.672H321.68V373.152H305.92V394.192ZM327.117 397.672V369.672H338.037C340.491 369.672 342.584 370.058 344.317 370.832C346.051 371.605 347.384 372.725 348.317 374.192C349.251 375.658 349.717 377.405 349.717 379.432C349.717 381.458 349.251 383.205 348.317 384.672C347.384 386.112 346.051 387.218 344.317 387.992C342.584 388.765 340.491 389.152 338.037 389.152H329.317L331.117 387.312V397.672H327.117ZM345.837 397.672L338.717 387.512H342.997L350.197 397.672H345.837ZM331.117 387.712L329.317 385.752H337.917C340.477 385.752 342.411 385.205 343.717 384.112C345.051 382.992 345.717 381.432 345.717 379.432C345.717 377.432 345.051 375.885 343.717 374.792C342.411 373.698 340.477 373.152 337.917 373.152H329.317L331.117 371.152V387.712ZM362.66 397.672L350.34 369.672H354.66L365.98 395.512H363.5L374.9 369.672H378.9L366.62 397.672H362.66ZM380.87 397.672V369.672H384.87V397.672H380.87ZM404.173 397.992C402.04 397.992 400.066 397.645 398.253 396.952C396.466 396.232 394.906 395.232 393.573 393.952C392.266 392.645 391.24 391.125 390.493 389.392C389.746 387.658 389.373 385.752 389.373 383.672C389.373 381.592 389.746 379.685 390.493 377.952C391.24 376.218 392.28 374.712 393.613 373.432C394.946 372.125 396.506 371.125 398.293 370.432C400.106 369.712 402.08 369.352 404.213 369.352C406.373 369.352 408.36 369.725 410.173 370.472C412.013 371.192 413.573 372.272 414.853 373.712L412.253 376.232C411.186 375.112 409.986 374.285 408.653 373.752C407.32 373.192 405.893 372.912 404.373 372.912C402.8 372.912 401.333 373.178 399.973 373.712C398.64 374.245 397.48 374.992 396.493 375.952C395.506 376.912 394.733 378.058 394.173 379.392C393.64 380.698 393.373 382.125 393.373 383.672C393.373 385.218 393.64 386.658 394.173 387.992C394.733 389.298 395.506 390.432 396.493 391.392C397.48 392.352 398.64 393.098 399.973 393.632C401.333 394.165 402.8 394.432 404.373 394.432C405.893 394.432 407.32 394.165 408.653 393.632C409.986 393.072 411.186 392.218 412.253 391.072L414.853 393.592C413.573 395.032 412.013 396.125 410.173 396.872C408.36 397.618 406.36 397.992 404.173 397.992ZM422.599 381.752H436.999V385.152H422.599V381.752ZM422.959 394.192H439.279V397.672H418.959V369.672H438.719V373.152H422.959V394.192ZM452.316 397.992C450.183 397.992 448.143 397.672 446.196 397.032C444.25 396.365 442.716 395.512 441.596 394.472L443.076 391.352C444.143 392.285 445.503 393.058 447.156 393.672C448.81 394.285 450.53 394.592 452.316 394.592C453.943 394.592 455.263 394.405 456.276 394.032C457.29 393.658 458.036 393.152 458.516 392.512C458.996 391.845 459.236 391.098 459.236 390.272C459.236 389.312 458.916 388.538 458.276 387.952C457.663 387.365 456.85 386.898 455.836 386.552C454.85 386.178 453.756 385.858 452.556 385.592C451.356 385.325 450.143 385.018 448.916 384.672C447.716 384.298 446.61 383.832 445.596 383.272C444.61 382.712 443.81 381.965 443.196 381.032C442.583 380.072 442.276 378.845 442.276 377.352C442.276 375.912 442.65 374.592 443.396 373.392C444.17 372.165 445.343 371.192 446.916 370.472C448.516 369.725 450.543 369.352 452.996 369.352C454.623 369.352 456.236 369.565 457.836 369.992C459.436 370.418 460.823 371.032 461.996 371.832L460.676 375.032C459.476 374.232 458.21 373.658 456.876 373.312C455.543 372.938 454.25 372.752 452.996 372.752C451.423 372.752 450.13 372.952 449.116 373.352C448.103 373.752 447.356 374.285 446.876 374.952C446.423 375.618 446.196 376.365 446.196 377.192C446.196 378.178 446.503 378.965 447.116 379.552C447.756 380.138 448.57 380.605 449.556 380.952C450.57 381.298 451.676 381.618 452.876 381.912C454.076 382.178 455.276 382.485 456.476 382.832C457.703 383.178 458.81 383.632 459.796 384.192C460.81 384.752 461.623 385.498 462.236 386.432C462.85 387.365 463.156 388.565 463.156 390.032C463.156 391.445 462.77 392.765 461.996 393.992C461.223 395.192 460.023 396.165 458.396 396.912C456.796 397.632 454.77 397.992 452.316 397.992ZM476.542 397.672V369.672H480.542V394.192H495.702V397.672H476.542ZM498.692 397.672V369.672H502.692V394.192H517.852V397.672H498.692ZM532.854 397.992C530.721 397.992 528.748 397.645 526.934 396.952C525.148 396.232 523.588 395.232 522.254 393.952C520.948 392.645 519.921 391.125 519.174 389.392C518.428 387.658 518.054 385.752 518.054 383.672C518.054 381.592 518.428 379.685 519.174 377.952C519.921 376.218 520.961 374.712 522.294 373.432C523.628 372.125 525.188 371.125 526.974 370.432C528.788 369.712 530.761 369.352 532.894 369.352C535.054 369.352 537.041 369.725 538.854 370.472C540.694 371.192 542.254 372.272 543.534 373.712L540.934 376.232C539.868 375.112 538.668 374.285 537.334 373.752C536.001 373.192 534.574 372.912 533.054 372.912C531.481 372.912 530.014 373.178 528.654 373.712C527.321 374.245 526.161 374.992 525.174 375.952C524.188 376.912 523.414 378.058 522.854 379.392C522.321 380.698 522.054 382.125 522.054 383.672C522.054 385.218 522.321 386.658 522.854 387.992C523.414 389.298 524.188 390.432 525.174 391.392C526.161 392.352 527.321 393.098 528.654 393.632C530.014 394.165 531.481 394.432 533.054 394.432C534.574 394.432 536.001 394.165 537.334 393.632C538.668 393.072 539.868 392.218 540.934 391.072L543.534 393.592C542.254 395.032 540.694 396.125 538.854 396.872C537.041 397.618 535.041 397.992 532.854 397.992Z" fill="#8A949A"/>
</svg>

